<?xml version="1.0" standalone="no"?>
<!DOCTYPE svg PUBLIC "-//W3C//DTD SVG 20010904//EN"
 "http://www.w3.org/TR/2001/REC-SVG-20010904/DTD/svg10.dtd">
<svg version="1.0" xmlns="http://www.w3.org/2000/svg"
 width="512.000000pt" height="512.000000pt" viewBox="0 0 512.000000 512.000000"
 preserveAspectRatio="xMidYMid meet">
<metadata>
Created by potrace 1.14, written by Peter Selinger 2001-2017
</metadata>
<g transform="translate(0.000000,512.000000) scale(0.100000,-0.100000)"
fill="#000000" stroke="none">
<path d="M3607 4486 c-36 -36 -42 -94 -16 -153 27 -62 56 -152 65 -200 4 -21
9 -47 11 -58 2 -11 6 -67 8 -125 6 -154 -20 -255 -101 -380 -56 -86 -90 -118
-204 -185 -345 -205 -846 -376 -1205 -411 -27 -3 -66 -7 -85 -10 -34 -4 -329
-10 -836 -18 -199 -3 -258 -7 -288 -20 -36 -15 -41 -15 -82 3 -108 48 -229
151 -291 248 -39 62 -79 176 -89 258 -10 78 -10 272 0 357 7 67 7 68 -18 78
-14 5 -26 14 -26 20 0 14 -56 13 -83 -1 -68 -37 -181 -256 -228 -442 -39 -154
-31 -394 18 -542 23 -71 71 -172 106 -224 40 -58 140 -158 200 -199 l47 -33 1
-107 c1 -130 1 -132 33 -186 39 -67 105 -119 167 -135 30 -7 62 -15 71 -17 9
-3 30 -29 47 -59 51 -90 128 -134 246 -140 39 -2 72 -4 75 -4 3 -1 5 -27 6
-59 2 -125 82 -215 201 -227 19 -1 36 -5 39 -8 3 -3 25 -78 50 -168 201 -730
198 -723 289 -768 61 -30 116 -26 251 22 136 48 166 62 189 86 23 27 33 -17
-110 498 -25 90 -45 169 -45 177 0 8 17 15 49 19 60 7 85 20 132 70 62 66 69
124 33 266 -8 30 -12 57 -9 59 4 4 154 -22 245 -43 8 -2 38 -8 65 -15 258 -58
686 -240 913 -389 71 -47 92 -66 105 -97 20 -50 84 -112 132 -128 102 -36 205
7 257 107 21 41 22 54 25 387 1 190 3 368 3 397 l0 52 38 7 c111 20 194 71
227 141 23 48 23 338 1 382 -40 76 -102 113 -246 145 l-25 5 2 133 c1 73 2
157 2 186 1 35 5 52 14 52 17 0 90 111 125 190 16 36 37 97 47 135 23 90 27
283 8 382 -53 279 -213 554 -400 684 -55 38 -121 40 -156 5z m-3169 -669 c2
-9 -1 -17 -7 -17 -6 0 -10 6 -8 13 1 6 -6 11 -15 11 -10 -1 -15 2 -12 8 9 15
38 5 42 -15z m-212 -318 c-14 -49 -39 -178 -49 -254 -3 -16 -3 -1 -1 35 2 36
6 79 9 95 10 55 47 186 52 182 2 -3 -3 -29 -11 -58z m3256 -244 c11 -14 26
-25 33 -25 18 0 24 -10 31 -56 7 -47 17 -60 50 -67 18 -3 34 3 52 18 26 22 27
22 52 5 14 -9 49 -25 78 -34 28 -10 52 -23 53 -29 0 -7 1 -414 1 -905 l0 -893
-26 -24 c-31 -28 -66 -32 -99 -10 l-22 14 -3 483 c-2 266 -4 640 -5 831 l-2
349 -24 19 c-33 27 -72 21 -89 -13 -12 -25 -19 -482 -22 -1306 l0 -184 -37 22
c-376 225 -774 374 -1188 445 -16 3 -41 7 -55 10 -101 20 -177 23 -685 30
-524 7 -551 8 -585 33 -58 43 -60 55 -57 417 l2 330 29 5 c30 5 39 16 56 63
11 31 -38 28 434 30 171 1 270 -2 272 -8 2 -5 5 -160 7 -344 4 -334 4 -334 26
-353 26 -21 64 -18 92 8 17 15 18 40 18 351 0 185 2 338 4 340 7 6 46 11 142
18 124 8 225 21 400 51 58 10 270 66 364 96 200 63 489 192 636 282 22 13 42
25 44 25 2 1 12 -10 23 -24z m591 -707 c35 -14 44 -46 46 -178 2 -129 -7 -148
-74 -172 -59 -21 -71 -22 -73 -5 -4 54 -2 370 3 377 5 8 33 2 98 -22z m-3282
0 c0 -13 1 -108 2 -213 l0 -190 -29 3 c-38 4 -93 47 -108 84 -7 17 -12 70 -12
125 1 85 3 97 21 107 67 37 105 69 105 86 0 28 20 25 21 -2z m976 -812 c13
-38 21 -72 18 -76 -3 -4 -103 -8 -224 -9 l-218 -2 -27 31 c-32 38 -38 116 -9
122 9 2 111 3 227 2 l211 0 22 -68z m299 52 c9 -10 45 -142 50 -184 9 -71 -14
-94 -90 -94 l-54 0 -32 117 c-18 64 -36 129 -41 146 l-8 29 86 -6 c47 -3 87
-7 89 -8z m-238 -283 c10 -11 20 -44 116 -405 75 -277 90 -339 84 -346 -7 -7
-115 -44 -172 -60 -46 -12 -49 -12 -71 10 -29 29 -77 186 -219 713 l-24 92 26
3 c62 7 252 2 260 -7z"/>
<path d="M4735 3086 c-21 -21 -23 -29 -15 -56 5 -17 22 -46 39 -65 108 -123
195 -308 215 -455 8 -56 8 -235 1 -275 -28 -148 -94 -292 -189 -411 -63 -78
-70 -91 -67 -126 3 -41 66 -63 102 -35 13 10 95 103 117 132 31 41 78 129 106
198 54 132 71 221 71 387 -1 162 -20 263 -77 395 -64 147 -209 335 -259 335
-11 0 -31 -11 -44 -24z"/>
<path d="M4430 2780 c-29 -29 -25 -66 14 -113 54 -66 86 -139 98 -226 19 -130
-8 -230 -93 -344 -42 -55 -49 -95 -23 -121 28 -28 69 -23 107 12 55 53 126
188 143 274 30 154 -13 346 -103 456 -72 88 -103 102 -143 62z"/>
</g>
</svg>
